inDegrees=no
num_controls=7
num_derivatives=13
num_iterations=125
num_multipliers=7
num_parameters=0
num_slacks=7
num_states=26
objective=5.611545
objective_accelerations=0.434888
objective_balance=0.034720
objective_effort=0.434299
objective_height=4.588149
objective_ligament=0.119489
solver_duration=1383.654423
status=Solve_Succeeded
success=true
DataType=double
version=3
OpenSimVersion=4.4-2022-07-23-0e9fedc
endheader
time	/jointset/ground_pelvis/pelvis_tilt/value	/jointset/ground_pelvis/pelvis_tx/value	/jointset/ground_pelvis/pelvis_ty/value	/jointset/hip_l/hip_flexion_l/value	/jointset/hip_l/hip_adduction_l/value	/jointset/hip_l/hip_rotation_l/value	/jointset/back/lumbar_extension/value	/jointset/patellofemoral_l/patellar_flexion_l/value	/jointset/knee_l/knee_flexion_l/value	/jointset/knee_l/knee_adduction_l/value	/jointset/knee_l/knee_rotation_l/value	/jointset/ankle_l/ankle_angle_l/value	/jointset/subtalar_l/subtalar_angle_l/value	/jointset/ground_pelvis/pelvis_tilt/speed	/jointset/ground_pelvis/pelvis_tx/speed	/jointset/ground_pelvis/pelvis_ty/speed	/jointset/hip_l/hip_flexion_l/speed	/jointset/hip_l/hip_adduction_l/speed	/jointset/hip_l/hip_rotation_l/speed	/jointset/back/lumbar_extension/speed	/jointset/patellofemoral_l/patellar_flexion_l/speed	/jointset/knee_l/knee_flexion_l/speed	/jointset/knee_l/knee_adduction_l/speed	/jointset/knee_l/knee_rotation_l/speed	/jointset/ankle_l/ankle_angle_l/speed	/jointset/subtalar_l/subtalar_angle_l/speed	/forceset/tau_hip_flexion_l	/forceset/tau_hip_adduction_l	/forceset/tau_hip_rotation_l	/forceset/tau_knee_flexion_l	/forceset/tau_ankle_angle_l	/forceset/tau_subtalar_angle_l	/forceset/tau_lumbar_extension	lambda_cid13_p0	lambda_cid13_p1	lambda_cid13_p2	lambda_cid13_p3	lambda_cid13_p4	lambda_cid13_p5	lambda_cid14_p0	/jointset/ground_pelvis/pelvis_tilt/accel	/jointset/ground_pelvis/pelvis_tx/accel	/jointset/ground_pelvis/pelvis_ty/accel	/jointset/hip_l/hip_flexion_l/accel	/jointset/hip_l/hip_adduction_l/accel	/jointset/hip_l/hip_rotation_l/accel	/jointset/back/lumbar_extension/accel	/jointset/patellofemoral_l/patellar_flexion_l/accel	/jointset/knee_l/knee_flexion_l/accel	/jointset/knee_l/knee_adduction_l/accel	/jointset/knee_l/knee_rotation_l/accel	/jointset/ankle_l/ankle_angle_l/accel	/jointset/subtalar_l/subtalar_angle_l/accel	gamma_cid13_p0	gamma_cid13_p1	gamma_cid13_p2	gamma_cid13_p3	gamma_cid13_p4	gamma_cid13_p5	gamma_cid14_p0
0.5	-0.07185110413596678	-0.03008417543056711	0.8279602454656874	0.8334252129537649	-0.3270924136877211	-0.1063965696901413	-0.7766117198136865	0.8410845234444324	0.8410845234445637	-0.1069046887657636	-0.1745240962886348	0.1389365076491753	0.01305051946804818	-0.07122513913279863	-0.1485665177204044	-0.3340590726400815	1.337559199504895	-0.04314475504732268	0.4966750497116666	-0.8367613771719805	1.566911458589465	1.566911458589478	0.1319324397541534	0.0001915284099821365	0.4054625232265656	0.09069300761223359	-0.2510377594354573	0.02544148651212274	-0.004400873867940244	-0.2330713899771184	0.07443506796267947	0.04586881344753305	0.3135420825496366	-20.27250512453147	-18.35797850928205	4.741770410494414	-6.271252036713487	-702.2708741982945	-76.58369698875283	-12.927172094179	0.1996657378746759	0.553256272707305	-0.1438250090612241	-1.337301153498785	0.2453487299671012	-0.4192486485072319	1.672140079078798	-1.267059417408025	-1.267059417408039	-0.2863288860300076	0.00300223718439369	-0.1953622582264627	0.2430763107944764	-1.599590917409675e-07	-1.941698326861389e-07	8.77659884775647e-07	6.158505283789613e-08	-1.735921807860714e-07	-1.780821676504901e-07	-1.343729387203454e-07
0.51	-0.07255336426936645	-0.03154215835204424	0.8246132029902505	0.8467319736390738	-0.327512207919355	-0.1014503248468366	-0.7848949229982043	0.8566876943578596	0.8566876943579955	-0.1056016220557963	-0.1745219397257607	0.1429803161862166	0.01396855563105243	-0.06922165788931937	-0.1430289440039689	-0.3352725081901848	1.323607751981965	-0.04081909668746259	0.4925124926786011	-0.819803231443743	1.553482448109868	1.553482448109894	0.1286681399205085	0.0002352903704918873	0.4032211068971703	0.09288505071456329	-0.2562321972733649	0.02591291589365672	-0.00459950769415102	-0.2364148649365378	0.07350126202955221	0.04604632982711148	0.3189323179841408	-20.77977827896381	-18.30343915947487	4.684170021147148	-6.065981393686765	-705.963181241372	-76.45690783653178	-12.32406039641093	0.201456949089386	0.5541921249764025	-0.09860149774976026	-1.451865897163283	0.2252947722567031	-0.4241040145330672	1.719056063085803	-1.416836014126292	-1.416836014124263	-0.3483856982418299	0.004574957778515725	-0.2502441413861961	0.2027991698550846	-1.622467951637185e-07	-1.03860430393333e-07	9.462776137543329e-07	7.858044983753388e-08	-1.714718892469903e-07	-1.487965064845887e-07	-1.329599859856298e-07
0.52	-0.07323543606408862	-0.03294472869558424	0.8212563264253601	0.8598936599800188	-0.3279089214908041	-0.09654757453056172	-0.7930062638767648	0.8721493723363322	0.8721493723364467	-0.1043315793773906	-0.1745194431867828	0.1469993679957427	0.01490761839705643	-0.06718747138554602	-0.1374840021329783	-0.3360258905308303	1.308544330640136	-0.03852862299709887	0.4879761442924443	-0.8023889159798734	1.538612871594641	1.53861287159468	0.1253276334384438	0.0002595236227731912	0.4005111777241677	0.09489832821301181	-0.2614266351112295	0.02638434527516931	-0.004798141520798256	-0.2397583398959377	0.07256745609641582	0.04622384620667267	0.324322553418683	-21.28986870074966	-18.24887125269606	4.627096824185008	-5.894606077073395	-709.7251778769848	-76.37188560400656	-11.71844257925484	0.2058067899339718	0.5547299036179903	-0.05181436716971826	-1.559695917278337	0.2383117960678122	-0.4940069191255284	1.763374026205338	-1.555172624533767	-1.555172624533766	-0.3015702157139301	-0.0009035044614410064	-0.2890648269483138	0.20732319001803	-1.523710126039949e-07	-7.024412511855259e-08	9.202102903445425e-07	7.753968398163522e-08	-1.56179934158643e-07	-1.213005639904115e-07	-1.26343524986132e-07
0.53	-0.07389699207845421	-0.03429184012070978	0.8178942101505499	0.8728993274520708	-0.3282828490426272	-0.09169205194714955	-0.8009412227432551	0.8874554740663108	0.8874554740662949	-0.1030950824455826	-0.1745167975794901	0.1509891656319793	0.015866041605115	-0.06511351122592303	-0.1319395799400361	-0.3363203482645456	1.292412040998349	-0.03626217028439049	0.483061732233949	-0.7845342625773564	1.522392331497088	1.522392331497124	0.1219748723840378	0.0002603044535841857	0.3973849788401944	0.09676153893246932	-0.2665388094175889	0.02678023036522719	-0.004960109308488029	-0.2430074046782591	0.07149264994673803	0.04634042032429223	0.3296051589555876	-21.84144961369036	-18.15826813850035	4.561646799430582	-5.663444048235568	-713.3762817816242	-76.23952391326321	-11.11159969239835	0.2097080850215614	0.5541192178795733	-0.006738681196688457	-1.666583597507172	0.2198910888475787	-0.5002705176522922	1.806800208571835	-1.687741563587984	-1.68774156358827	-0.3516461038982422	-0.0006488330422534661	-0.3339012133268177	0.1720060391402538	-1.419040116578163e-07	-3.094233187959443e-08	8.915354035197215e-07	7.775018437177777e-08	-1.421358307516733e-07	-9.273000130625581e-08	-1.185477841531577e-07
0.54	-0.0745375050000681	-0.03558354315575645	0.8145314538574582	0.8857383544056917	-0.3286342962513828	-0.08688769591796423	-0.8086955772334644	0.9025929210230431	0.9025929210229534	-0.1018920165349113	-0.1745143877059087	0.1549458005205306	0.01684233412561024	-0.06297885282438551	-0.1264023241172071	-0.3361538941871814	1.27521622696147	-0.03403255437261123	0.4777428334377942	-0.7662680407229133	1.504881916950661	1.504881916950694	0.1186414291858349	0.0002123768886224938	0.3938786281880199	0.09847219070115704	-0.271650983723931	0.02717611545523058	-0.005122077095726846	-0.2462564694606009	0.07041784379703325	0.04645699444183121	0.3348877644925171	-22.39684571132912	-18.06744377886498	4.49667271777792	-5.461511621844538	-717.108498712226	-76.14775577564912	-10.50514139515192	0.2179464383172803	0.5532966295951172	0.0403679950461273	-1.772400796296422	0.2309444358820353	-0.5749042666574288	1.845687716590656	-1.813147514308208	-1.813147514308206	-0.2977066444732762	-0.01064518361607837	-0.3650951805888377	0.176811399863924	-1.307828967521553e-07	1.464978846866692e-08	8.599755529165686e-07	7.934506443839143e-08	-1.294723292049513e-07	-6.297049713531536e-08	-1.094473081852734e-07
